<svg clip-rule="evenodd" fill-rule="evenodd" stroke-linejoin="round" stroke-miterlimit="1.41421" viewBox="0 0 93 22" xmlns="http://www.w3.org/2000/svg"><path d="m21.48 10.217c-.147-5.748-4.994-10.358-10.742-10.217-.168-.008-.337-.013-.506-.013-5.611 0-10.229 4.618-10.229 10.229 0 5.612 4.618 10.229 10.229 10.229.169 0 .338-.004.506-.012 2.102.006 4.163-.586 5.941-1.706l6.446 3.273-3.438-6.131c1.166-1.654 1.792-3.629 1.793-5.652zm-10.742 6.319c-3.346-.168-6.008-2.968-6.008-6.318 0-3.47 2.856-6.326 6.326-6.326s6.325 2.855 6.326 6.325c-.091 3.555-3.089 6.406-6.644 6.319zm26.228-5c.001.032.001.064.001.097 0 2.565-2.111 4.677-4.677 4.677s-4.677-2.112-4.677-4.677c0-.033 0-.065.001-.097v-10.55h-4.351v10.553c0 5.535 3.715 8.892 9.027 8.892s9.026-3.2 9.026-8.892v-10.553h-4.35v10.553zm29.336 8.552h4.351v-19.102h-4.353v19.105zm-12.478-7.98 5.519-5.291v13.271h4.35v-19.102h-4.35l-5.519 5.233-5.52-5.233h-4.35v19.105h4.346v-13.271zm34.826-11.125v12.633l-11.038-12.633h-4.351v19.105h4.351v-12.63l11.038 12.633h4.35v-19.105h-4.35z"/></svg>